<?xml version="1.0" standalone="no"?>
<!DOCTYPE svg PUBLIC "-//W3C//DTD SVG 20010904//EN"
 "http://www.w3.org/TR/2001/REC-SVG-20010904/DTD/svg10.dtd">
<svg version="1.0" xmlns="http://www.w3.org/2000/svg"
 width="160.000000pt" height="160.000000pt" viewBox="0 0 160.000000 160.000000"
 preserveAspectRatio="xMidYMid meet">
<metadata>
Created by potrace 1.14, written by Peter Selinger 2001-2017
</metadata>
<g transform="translate(0.000000,160.000000) scale(0.100000,-0.100000)"
fill="#000000" stroke="none">
<path d="M525 1564 c-27 -14 -121 -131 -152 -188 -7 -13 -17 -58 -22 -102 -12
-92 -12 -89 -45 -226 -13 -57 -43 -149 -65 -204 -73 -184 -85 -244 -96 -474
-3 -58 -7 -116 -10 -130 -33 -178 -11 -197 217 -194 84 1 192 -4 239 -10 85
-12 324 -13 384 -3 17 3 50 9 75 12 163 22 377 106 448 176 71 70 87 176 38
265 -58 104 -194 217 -316 262 -115 42 -284 37 -380 -13 -89 -45 -187 -152
-256 -277 l-35 -63 6 54 c9 81 14 175 19 387 3 105 8 198 11 206 4 9 35 28 71
43 38 16 78 42 97 63 18 20 52 55 76 78 51 49 58 89 23 127 -20 21 -20 25 -7
43 37 49 10 85 -92 120 -37 12 -86 29 -108 37 -69 25 -89 27 -120 11z"/>
</g>
</svg>
